inDegrees=yes
name=t4_motion.mot
DataType=double
version=3
OpenSimVersion=4.4-2022-07-23-0e9fedc
endheader
time	pelvis_tilt	pelvis_list	pelvis_rotation	pelvis_tx	pelvis_ty	pelvis_tz	hip_flexion_r	hip_adduction_r	hip_rotation_r	knee_angle_r	knee_angle_r_beta	ankle_angle_r	subtalar_angle_r	mtp_angle_r	hip_flexion_l	hip_adduction_l	hip_rotation_l	knee_angle_l	knee_angle_l_beta	ankle_angle_l	subtalar_angle_l	mtp_angle_l	lumbar_extension	lumbar_bending	lumbar_rotation	arm_flex_r	arm_add_r	arm_rot_r	elbow_flex_r	pro_sup_r	wrist_flex_r	wrist_dev_r	arm_flex_l	arm_add_l	arm_rot_l	elbow_flex_l	pro_sup_l	wrist_flex_l	wrist_dev_l
10.9759669303894	-2.048971278615395e-26	1.276441476335386e-19	1.021724409013204e-26	-3.108357333866746e-22	0.93	-4.92447240499558e-23	20.54302652631619	0.5953033080504738	1.451750553247845	0.01343439260800898	0.0002344743840153446	-6.314883147186153e-16	-7.964111242722699e-17	9.116103949806541e-16	-1.172882354699101e-34	3.298047879353709e-20	0	7.490722143500453e-15	1.307377647559442e-16	-1.113757905455216e-15	-5.182364135381354e-16	2.112733943809657e-15	-2.358588494462995e-21	0	8.924995918838903e-20	1.107570486711546e-24	1.339837131721218e-25	1.471508748248956e-16	7.49072253213814e-15	7.490720895865464e-15	-5.337629736869922e-19	-1.360554273551128e-18	-3.040767334328579e-16	-4.625878735741946e-16	8.292107777200982e-16	7.490722871721177e-15	7.490722169036101e-15	6.890549236012063e-20	-4.513954219478616e-19
10.99697303771973	-1.192619429546067e-25	-1.676455005314704e-16	-1.42154387574322e-26	1.29874154157588e-19	0.93	1.124287874882404e-18	22.32544604067929	0.8405996313193677	1.564394717420056	0.009630810990424619	0.0001680893614201657	-2.991949060427986e-16	3.280886717413068e-16	1.229806565069653e-17	-9.543554553370468e-29	1.263683999996571e-23	0	0	-3.547367008624726e-16	1.518544675611996e-16	-8.364234400013817e-17	-4.730377641945563e-17	-5.580253811162968e-17	0	5.280386929328456e-16	-1.457928930248364e-24	-7.652085240486331e-18	-4.632297101460735e-17	0	0	1.096956305145323e-18	-7.516197500317964e-22	-6.805435232638082e-17	-5.927363214307811e-17	4.028994148506279e-16	0	0	-1.980906083703908e-18	-1.744686643588007e-21
11.00394916534424	-4.310455369189608e-34	-3.448364295351686e-34	2.155227684594804e-34	2.446989175499447e-54	0.93	-7.308341004158347e-53	22.90851178684123	0.7236868578788668	1.661224172204041	0.008736661204421849	0.0001524835036484146	0	-5.981958496866791e-51	4.486468872650093e-52	1.088111911825179e-63	0	0	3.136269056405296e-46	-5.131708243377016e-49	-4.785566797493432e-51	1.570264105427533e-51	1.986197157162802e-52	0	0	0	0	0	0	7.84067264101324e-47	3.92033632050662e-47	2.804043045406308e-53	0	0	-5.981958496866791e-52	0	7.84067264101324e-47	3.92033632050662e-47	0	0
11.01595592498779	-3.041638563148462e-27	-1.951619226876673e-18	2.170526697627561e-27	-6.949386058282894e-21	0.93	1.64851459702205e-20	23.6230305005436	0.7332517914455179	1.705779523011933	0.007917118302377124	0.0001381797816463848	9.118791957515849e-18	-4.32599694583877e-21	-1.263239934751417e-20	-8.053899710315664e-27	-1.241113330427294e-18	0	2.338286702671303e-14	4.081080181792097e-16	-6.755583160112092e-20	7.95849566880646e-21	-1.553313735862657e-19	5.184695069397191e-20	0	8.25801660094099e-20	-9.543089491635161e-25	-1.016060043060916e-25	-1.242263340450053e-18	2.338286699956217e-14	2.33828670522649e-14	-1.138750827836615e-18	-6.198115063037751e-19	-1.399069401345204e-19	1.746059590201353e-20	5.663764483386909e-19	2.338286699949338e-14	2.338286705299681e-14	1.295331902664907e-18	5.153854747160916e-19
11.02295613288879	0	0	0	0	0.93	0	24.1054880807968	0.7693727132433145	1.662689952995157	0.00741565785931491	0.0001294276458464396	0	0	0	0	0	0	0	-9.183549615799121e-41	0	0	0	0	0	0	0	0	0	0	1.059099713538898e-38	0	0	0	0	0	0	1.059099713538898e-38	0	0
